<svg width="16" height="16" viewBox="0 0 12 12" fill="none" xmlns="http://www.w3.org/2000/svg">
<path d="M0.75 10.875C0.75 11.4961 1.25391 12 1.875 12H10.125C10.7461 12 11.25 11.4961 11.25 10.875V4.5H0.75V10.875ZM8.25 6.28125C8.25 6.12656 8.37656 6 8.53125 6H9.46875C9.62344 6 9.75 6.12656 9.75 6.28125V7.21875C9.75 7.37344 9.62344 7.5 9.46875 7.5H8.53125C8.37656 7.5 8.25 7.37344 8.25 7.21875V6.28125ZM8.25 9.28125C8.25 9.12656 8.37656 9 8.53125 9H9.46875C9.62344 9 9.75 9.12656 9.75 9.28125V10.2188C9.75 10.3734 9.62344 10.5 9.46875 10.5H8.53125C8.37656 10.5 8.25 10.3734 8.25 10.2188V9.28125ZM5.25 6.28125C5.25 6.12656 5.37656 6 5.53125 6H6.46875C6.62344 6 6.75 6.12656 6.75 6.28125V7.21875C6.75 7.37344 6.62344 7.5 6.46875 7.5H5.53125C5.37656 7.5 5.25 7.37344 5.25 7.21875V6.28125ZM5.25 9.28125C5.25 9.12656 5.37656 9 5.53125 9H6.46875C6.62344 9 6.75 9.12656 6.75 9.28125V10.2188C6.75 10.3734 6.62344 10.5 6.46875 10.5H5.53125C5.37656 10.5 5.25 10.3734 5.25 10.2188V9.28125ZM2.25 6.28125C2.25 6.12656 2.37656 6 2.53125 6H3.46875C3.62344 6 3.75 6.12656 3.75 6.28125V7.21875C3.75 7.37344 3.62344 7.5 3.46875 7.5H2.53125C2.37656 7.5 2.25 7.37344 2.25 7.21875V6.28125ZM2.25 9.28125C2.25 9.12656 2.37656 9 2.53125 9H3.46875C3.62344 9 3.75 9.12656 3.75 9.28125V10.2188C3.75 10.3734 3.62344 10.5 3.46875 10.5H2.53125C2.37656 10.5 2.25 10.3734 2.25 10.2188V9.28125ZM10.125 1.5H9V0.375C9 0.16875 8.83125 0 8.625 0H7.875C7.66875 0 7.5 0.16875 7.5 0.375V1.5H4.5V0.375C4.5 0.16875 4.33125 0 4.125 0H3.375C3.16875 0 3 0.16875 3 0.375V1.5H1.875C1.25391 1.5 0.75 2.00391 0.75 2.625V3.75H11.25V2.625C11.25 2.00391 10.7461 1.5 10.125 1.5Z" fill="#01C9B8"/>
</svg>
