<svg width="20" height="20" viewBox="0 0 20 20" fill="none" xmlns="http://www.w3.org/2000/svg">
<path d="M11.3257 10L15.0366 6.2891C15.2128 6.11329 15.3118 5.87472 15.312 5.62587C15.3123 5.37702 15.2136 5.13827 15.0378 4.96215C14.862 4.78603 14.6234 4.68696 14.3746 4.68674C14.1257 4.68652 13.887 4.78517 13.7109 4.96098L9.99992 8.67191L6.28898 4.96098C6.11286 4.78486 5.87399 4.68591 5.62492 4.68591C5.37585 4.68591 5.13698 4.78486 4.96085 4.96098C4.78473 5.1371 4.68579 5.37597 4.68579 5.62504C4.68579 5.87411 4.78473 6.11298 4.96085 6.2891L8.67179 10L4.96085 13.711C4.78473 13.8871 4.68579 14.126 4.68579 14.375C4.68579 14.6241 4.78473 14.863 4.96085 15.0391C5.13698 15.2152 5.37585 15.3142 5.62492 15.3142C5.87399 15.3142 6.11286 15.2152 6.28898 15.0391L9.99992 11.3282L13.7109 15.0391C13.887 15.2152 14.1258 15.3142 14.3749 15.3142C14.624 15.3142 14.8629 15.2152 15.039 15.0391C15.2151 14.863 15.314 14.6241 15.314 14.375C15.314 14.126 15.2151 13.8871 15.039 13.711L11.3257 10Z" fill="currentColor"/>
</svg>
