<svg width="15" height="15" viewBox="0 0 15 15" fill="none" xmlns="http://www.w3.org/2000/svg">
<path d="M5.944 0.5L5.858 0.937L5.529 2.535C5.01239 2.73578 4.52897 3.01323 4.095 3.358L2.487 2.82L2.055 2.687L1.831 3.072L0.724 4.923L0.5 5.31L0.828 5.597L2.072 6.655C2.027 6.932 1.969 7.205 1.969 7.496C1.969 7.787 2.027 8.061 2.072 8.338L0.828 9.395L0.5 9.682L0.724 10.068L1.831 11.918L2.055 12.305L2.487 12.17L4.095 11.633C4.526 11.971 5.003 12.255 5.529 12.456L5.858 14.054L5.944 14.491H9.055L9.142 14.054L9.47 12.456C9.98658 12.2552 10.47 11.9777 10.904 11.633L12.512 12.17L12.944 12.305L13.169 11.919L14.275 10.068L14.5 9.682L14.171 9.395L12.927 8.337C12.973 8.06 13.03 7.787 13.03 7.495C13.03 7.205 12.973 6.931 12.927 6.654L14.171 5.596L14.5 5.309L14.275 4.923L13.169 3.073L12.944 2.687L12.512 2.821L10.904 3.358C10.47 3.01323 9.98661 2.73578 9.47 2.535L9.142 0.937L9.055 0.5H5.944Z" stroke="#222222" stroke-linecap="square" stroke-linejoin="round"/>
<path d="M9.5 7.495C9.5 8.02543 9.28929 8.53414 8.91421 8.90921C8.53914 9.28428 8.03043 9.495 7.5 9.495C6.96957 9.495 6.46086 9.28428 6.08579 8.90921C5.71071 8.53414 5.5 8.02543 5.5 7.495C5.5 6.96456 5.71071 6.45585 6.08579 6.08078C6.46086 5.70571 6.96957 5.495 7.5 5.495C8.03043 5.495 8.53914 5.70571 8.91421 6.08078C9.28929 6.45585 9.5 6.96456 9.5 7.495V7.495Z" stroke="#222222" stroke-linecap="square" stroke-linejoin="round"/>
</svg>
