<svg width="18" height="18" viewBox="0 0 18 18" fill="none" xmlns="http://www.w3.org/2000/svg">
<path d="M12.9999 10.575C12.7678 10.1632 12.4537 9.80343 12.0771 9.5179C11.7004 9.23237 11.2691 9.02717 10.8099 8.915C10.3791 8.78574 9.94183 8.67893 9.49992 8.595V4.06C10.3785 4.15424 11.2167 4.47847 11.9299 5C11.9792 5.04366 12.0365 5.0772 12.0987 5.0987C12.1609 5.12019 12.2268 5.12922 12.2925 5.12528C12.3582 5.12133 12.4224 5.10448 12.4816 5.0757C12.5408 5.04691 12.5938 5.00675 12.6374 4.9575C12.6811 4.90825 12.7146 4.85089 12.7361 4.78868C12.7576 4.72648 12.7666 4.66065 12.7627 4.59495C12.7587 4.52925 12.7419 4.46497 12.7131 4.40579C12.6843 4.3466 12.6442 4.29366 12.5949 4.25C11.7001 3.5608 10.6255 3.14417 9.49992 3.05V1.5C9.49992 1.36739 9.44724 1.24021 9.35347 1.14645C9.2597 1.05268 9.13253 1 8.99992 1C8.86731 1 8.74013 1.05268 8.64636 1.14645C8.5526 1.24021 8.49992 1.36739 8.49992 1.5V3C6.29992 3.05 5.08492 4.145 4.71492 5.09C4.46809 5.69852 4.44463 6.37478 4.64872 6.99894C4.85281 7.62309 5.27126 8.15486 5.82992 8.5C6.64311 8.99572 7.55396 9.30957 8.49992 9.42V14C7.19457 13.9343 5.94411 13.4544 4.92992 12.63C4.88466 12.5761 4.82854 12.5324 4.76523 12.5017C4.70192 12.4711 4.63285 12.4541 4.56253 12.4519C4.49221 12.4497 4.42223 12.4624 4.35715 12.4892C4.29207 12.5159 4.23336 12.5561 4.18487 12.607C4.13638 12.658 4.09919 12.7186 4.07573 12.785C4.05227 12.8513 4.04308 12.9218 4.04874 12.9919C4.05441 13.0621 4.07481 13.1302 4.10862 13.1919C4.14242 13.2536 4.18887 13.3075 4.24492 13.35C5.44088 14.3569 6.93779 14.9374 8.49992 15V16.5C8.49992 16.6326 8.5526 16.7598 8.64636 16.8536C8.74013 16.9473 8.86731 17 8.99992 17C9.13253 17 9.2597 16.9473 9.35347 16.8536C9.44724 16.7598 9.49992 16.6326 9.49992 16.5V15C10.9099 14.905 12.5349 14.455 13.1499 12.62C13.2612 12.2861 13.3052 11.9335 13.2795 11.5825C13.2537 11.2315 13.1587 10.8891 12.9999 10.575ZM6.39492 7.66C6.02982 7.44267 5.75421 7.10223 5.61765 6.69988C5.48109 6.29753 5.49253 5.85967 5.64992 5.465C5.70492 5.315 6.26492 4.06 8.49992 4V8.4C7.75404 8.30402 7.03678 8.05187 6.39492 7.66ZM12.1999 12.28C11.8399 13.35 11.0399 13.865 9.49992 13.98V9.615C9.81992 9.685 10.1499 9.765 10.4999 9.87C10.8305 9.94509 11.1424 10.0867 11.4166 10.2861C11.6908 10.4855 11.9216 10.7386 12.0949 11.03C12.291 11.4172 12.3287 11.8655 12.1999 12.28Z" fill="#222222"/>
</svg>
