<svg width="16" height="16" viewBox="0 0 16 16" fill="none" xmlns="http://www.w3.org/2000/svg">
<path d="M0 0H1V16H0V0ZM1 15H16V16H1V15Z" fill="#222222"/>
<path fill-rule="evenodd" clip-rule="evenodd" d="M14.39 4.31201L10.041 9.75001L7 6.70701L3.354 10.354L2.646 9.64601L7 5.29301L9.959 8.25001L13.609 3.68701L14.39 4.31101V4.31201Z" fill="#222222"/>
<path fill-rule="evenodd" clip-rule="evenodd" d="M10 3.5C10 3.36739 10.0527 3.24021 10.1464 3.14645C10.2402 3.05268 10.3674 3 10.5 3H14.5C14.6326 3 14.7598 3.05268 14.8536 3.14645C14.9473 3.24021 15 3.36739 15 3.5V7.5C15 7.63261 14.9473 7.75979 14.8536 7.85355C14.7598 7.94732 14.6326 8 14.5 8C14.3674 8 14.2402 7.94732 14.1464 7.85355C14.0527 7.75979 14 7.63261 14 7.5V4H10.5C10.3674 4 10.2402 3.94732 10.1464 3.85355C10.0527 3.75979 10 3.63261 10 3.5Z" fill="#222222"/>
</svg>
