<svg width="20" height="28" viewBox="0 0 20 28" fill="none" xmlns="http://www.w3.org/2000/svg">
<path d="M3.375 3.4375C5.20833 1.60417 7.41667 0.6875 10 0.6875C12.5833 0.6875 14.7708 1.60417 16.5625 3.4375C18.3958 5.22917 19.3125 7.41667 19.3125 10C19.3125 13.125 17.9792 15.6667 15.3125 17.625V20.6875C15.3125 21.0625 15.1875 21.375 14.9375 21.625C14.6875 21.875 14.375 22 14 22H6C5.625 22 5.3125 21.875 5.0625 21.625C4.8125 21.375 4.6875 21.0625 4.6875 20.6875V17.625C2.02083 15.7917 0.6875 13.25 0.6875 10C0.6875 7.41667 1.58333 5.22917 3.375 3.4375ZM6 26V24.6875H14V26C14 26.375 13.875 26.6875 13.625 26.9375C13.375 27.1875 13.0625 27.3125 12.6875 27.3125H7.3125C6.9375 27.3125 6.625 27.1875 6.375 26.9375C6.125 26.6875 6 26.375 6 26Z" fill="#FAFAFA"/>
</svg>
