<svg width="178" height="34" viewBox="0 0 178 34" fill="none" xmlns="http://www.w3.org/2000/svg">
<g clip-path="url(#clip0)">
<path d="M34.2199 7.89486C34.3595 7.89486 34.4934 7.83941 34.5921 7.74071C34.6908 7.64201 34.7462 7.50814 34.7462 7.36855V5.61592C34.7457 5.1588 34.5638 4.72056 34.2406 4.39733C33.9174 4.0741 33.4791 3.89226 33.022 3.89171H30.1936L29.5483 1.98749C29.5045 1.858 29.412 1.75065 29.2903 1.68817C29.1687 1.62569 29.0276 1.61299 28.8968 1.65276L13.5778 6.3096C13.451 6.35586 13.3468 6.44897 13.2866 6.56976C13.2264 6.69056 13.2148 6.82984 13.2542 6.95893C13.2935 7.08802 13.3809 7.1971 13.4983 7.26371C13.6157 7.33031 13.7542 7.34937 13.8852 7.31697L28.7157 2.80749L30.1294 6.98118C30.1742 7.11337 30.2697 7.22234 30.3948 7.28413C30.52 7.34592 30.6646 7.35546 30.7968 7.31065C30.929 7.26585 31.0379 7.17036 31.0997 7.0452C31.1615 6.92005 31.171 6.77547 31.1262 6.64328L30.5505 4.94328H33.0231C33.3936 4.94328 33.6947 5.24434 33.6947 5.61486V7.36855C33.6936 7.65907 33.9294 7.89486 34.2199 7.89486Z" fill="#01C9B8"/>
<path d="M38.4211 15.7875C38.2815 15.7875 38.1476 15.843 38.0489 15.9417C37.9502 16.0404 37.8947 16.1742 37.8947 16.3138C37.8947 16.4534 37.9502 16.5873 38.0489 16.686C38.1476 16.7847 38.2815 16.8402 38.4211 16.8402C38.7905 16.8402 38.9474 16.997 38.9474 17.3665V23.6823C38.9474 24.0517 38.7905 24.2086 38.4211 24.2086H30C29.6305 24.2086 29.4737 24.0517 29.4737 23.6823V18.4191C29.4737 18.0496 29.6305 17.8928 30 17.8928H36.3158C36.4554 17.8928 36.5892 17.8373 36.688 17.7386C36.7867 17.6399 36.8421 17.5061 36.8421 17.3665V11.0507C36.8421 10.0917 36.2221 9.47173 35.2632 9.47173H3.15789C1.86 9.47173 1.05263 8.66436 1.05263 7.36647C1.05263 6.06857 1.86 5.2612 3.15789 5.2612H8.50105L5.31579 6.31173C5.24777 6.33135 5.18441 6.36448 5.12949 6.40916C5.07457 6.45383 5.02923 6.50912 4.99618 6.57173C4.96314 6.63433 4.94306 6.70296 4.93715 6.77351C4.93124 6.84405 4.93962 6.91506 4.96179 6.98229C4.98397 7.04952 5.01948 7.11159 5.0662 7.16477C5.11291 7.21796 5.16988 7.26118 5.23369 7.29184C5.2975 7.32249 5.36684 7.33997 5.43756 7.3432C5.50828 7.34644 5.57892 7.33538 5.64526 7.31068L24.7179 1.02331C24.7836 1.00161 24.8443 0.967183 24.8967 0.922005C24.949 0.876827 24.992 0.821778 25.023 0.760003C25.0541 0.698228 25.0727 0.630935 25.0778 0.561967C25.0829 0.492999 25.0743 0.423706 25.0526 0.358045C25.0309 0.292384 24.9965 0.231641 24.9513 0.179283C24.9062 0.126926 24.8511 0.0839794 24.7893 0.0528962C24.7276 0.021813 24.6603 0.00320173 24.5913 -0.00187497C24.5223 -0.00695167 24.453 0.00160561 24.3874 0.0233083L11.6505 4.22331C11.6263 4.2191 11.6042 4.20857 11.5789 4.20857H3.15789C1.26947 4.20857 0 5.47805 0 7.36647V30.5244C0 32.4128 1.26947 33.6823 3.15789 33.6823H35.2632C36.2221 33.6823 36.8421 33.0623 36.8421 32.1033V26.8402C36.8421 26.7006 36.7867 26.5667 36.688 26.468C36.5892 26.3693 36.4554 26.3138 36.3158 26.3138C36.1762 26.3138 36.0423 26.3693 35.9436 26.468C35.8449 26.5667 35.7895 26.7006 35.7895 26.8402V32.1033C35.7895 32.4728 35.6326 32.6296 35.2632 32.6296H3.15789C1.86 32.6296 1.05263 31.8223 1.05263 30.5244V9.80015C1.59263 10.2559 2.30737 10.5244 3.15789 10.5244H35.2632C35.6326 10.5244 35.7895 10.6812 35.7895 11.0507V16.8402H30C29.0411 16.8402 28.4211 17.4602 28.4211 18.4191V23.6823C28.4211 24.6412 29.0411 25.2612 30 25.2612H38.4211C39.38 25.2612 40 24.6412 40 23.6823V17.3665C40 16.4075 39.38 15.7875 38.4211 15.7875Z" fill="#01C9B8"/>
<path d="M33.6842 22.1053C34.2656 22.1053 34.7369 21.634 34.7369 21.0526C34.7369 20.4713 34.2656 20 33.6842 20C33.1029 20 32.6316 20.4713 32.6316 21.0526C32.6316 21.634 33.1029 22.1053 33.6842 22.1053Z" fill="#01C9B8"/>
<path d="M8.11377 29.5337C7.99333 29.7062 7.82487 29.8356 7.6084 29.9219C7.39355 30.0065 7.1429 30.0488 6.85645 30.0488C6.56673 30.0488 6.30957 29.9813 6.08496 29.8462C5.86035 29.7095 5.6862 29.5158 5.5625 29.2651C5.44043 29.0145 5.37777 28.724 5.37451 28.3936V28.0835C5.37451 27.548 5.49902 27.133 5.74805 26.8384C5.9987 26.5438 6.35026 26.3965 6.80273 26.3965C7.17383 26.3965 7.47249 26.4917 7.69873 26.6821C7.92497 26.8709 8.06331 27.1395 8.11377 27.4878H7.64502C7.55713 27.0174 7.27718 26.7822 6.80518 26.7822C6.49105 26.7822 6.2526 26.8929 6.08984 27.1143C5.92871 27.334 5.84733 27.653 5.8457 28.0713V28.3618C5.8457 28.7606 5.93685 29.078 6.11914 29.314C6.30143 29.5483 6.54801 29.6655 6.85889 29.6655C7.03467 29.6655 7.18848 29.646 7.32031 29.6069C7.45215 29.5679 7.5612 29.502 7.64746 29.4092V28.6108H6.82471V28.23H8.11377V29.5337ZM9.66406 28.8794L9.73242 29.3481L9.83252 28.9258L10.5356 26.4453H10.9312L11.6172 28.9258L11.7148 29.3555L11.7905 28.877L12.3423 26.4453H12.8135L11.9517 30H11.5244L10.792 27.4097L10.7358 27.1387L10.6797 27.4097L9.92041 30H9.49316L8.63379 26.4453H9.10254L9.66406 28.8794Z" fill="#01C9B8"/>
</g>
<path d="M59.4482 26.3828C58.9736 26.9512 58.3027 27.3936 57.4355 27.71C56.5684 28.0205 55.6074 28.1758 54.5527 28.1758C53.4453 28.1758 52.4727 27.9355 51.6348 27.4551C50.8027 26.9688 50.1582 26.2656 49.7012 25.3457C49.25 24.4258 49.0186 23.3447 49.0068 22.1025V21.2324C49.0068 19.9551 49.2207 18.8506 49.6484 17.9189C50.082 16.9814 50.7031 16.2666 51.5117 15.7744C52.3262 15.2764 53.2783 15.0273 54.3682 15.0273C55.8857 15.0273 57.0723 15.3906 57.9277 16.1172C58.7832 16.8379 59.29 17.8896 59.4482 19.2725H56.8818C56.7646 18.54 56.5039 18.0039 56.0996 17.6641C55.7012 17.3242 55.1504 17.1543 54.4473 17.1543C53.5508 17.1543 52.8682 17.4912 52.3994 18.165C51.9307 18.8389 51.6934 19.8408 51.6875 21.1709V21.9883C51.6875 23.3301 51.9424 24.3438 52.4521 25.0293C52.9619 25.7148 53.709 26.0576 54.6934 26.0576C55.6836 26.0576 56.3896 25.8467 56.8115 25.4248V23.2188H54.4121V21.2764H59.4482V26.3828ZM66.3301 23.3154H64.2295V28H61.5928V15.2031H66.3477C67.8594 15.2031 69.0254 15.54 69.8457 16.2139C70.666 16.8877 71.0762 17.8398 71.0762 19.0703C71.0762 19.9434 70.8857 20.6729 70.5049 21.2588C70.1299 21.8389 69.5586 22.3018 68.791 22.6475L71.5596 27.877V28H68.7295L66.3301 23.3154ZM64.2295 21.1797H66.3564C67.0186 21.1797 67.5312 21.0127 67.8945 20.6787C68.2578 20.3389 68.4395 19.873 68.4395 19.2812C68.4395 18.6777 68.2666 18.2031 67.9209 17.8574C67.5811 17.5117 67.0566 17.3389 66.3477 17.3389H64.2295V21.1797ZM80.7881 22.4541H75.7256V25.8818H81.667V28H73.0889V15.2031H81.6494V17.3389H75.7256V20.3887H80.7881V22.4541ZM90.9131 22.4541H85.8506V25.8818H91.792V28H83.2139V15.2031H91.7744V17.3389H85.8506V20.3887H90.9131V22.4541ZM103.745 28H101.108L95.9756 19.5801V28H93.3389V15.2031H95.9756L101.117 23.6406V15.2031H103.745V28ZM120.497 24.3086L122.22 15.2031H124.848L122.009 28H119.354L117.271 19.4395L115.188 28H112.534L109.695 15.2031H112.323L114.055 24.291L116.164 15.2031H118.396L120.497 24.3086ZM133.118 25.3633H128.495L127.616 28H124.812L129.576 15.2031H132.02L136.81 28H134.006L133.118 25.3633ZM129.207 23.2275H132.406L130.798 18.4375L129.207 23.2275ZM140.642 25.8818H146.24V28H138.005V15.2031H140.642V25.8818ZM150.397 25.8818H155.996V28H147.761V15.2031H150.397V25.8818ZM165.216 22.4541H160.153V25.8818H166.095V28H157.517V15.2031H166.077V17.3389H160.153V20.3887H165.216V22.4541ZM177.45 17.3389H173.53V28H170.894V17.3389H167.026V15.2031H177.45V17.3389Z" fill="#01C9B8"/>
<defs>
<clipPath id="clip0">
<rect width="40" height="33.6842" fill="white"/>
</clipPath>
</defs>
</svg>
